#N canvas 539 170 1329 744 12;
#X obj 303 -134 inlet;
#X obj 303 -100 bng 19 250 50 0 empty empty empty 0 -10 0 12 #fcfcfc #000000 #000000;
#X text 492 155 C Major Scale (MIDI Note);
#X obj 82 285 sel 0;
#X floatatom 306 418 5 0 0 0 - - - 0;
#X floatatom 307 504 5 0 0 0 - - - 0;
#X obj 150 286 sel 1;
#X obj 214 287 sel 2;
#X obj 287 285 sel 3;
#X obj 362 285 sel 4;
#X msg 78 348 60;
#X msg 150 348 62;
#X msg 215 349 64;
#X msg 284 350 65;
#X msg 359 350 67;
#X msg 495 348 71;
#X msg 568 348 72;
#X obj 305 464 mtof;
#X obj 307 532 outlet;
#X msg 430 349 69;
#X text 88 326 C;
#X text 163 325 D;
#X text 231 328 E;
#X text 300 331 F;
#X text 374 329 G;
#X text 441 328 A;
#X text 502 326 B;
#X text 580 324 C;
#X obj 303 -58 random 100;
#X floatatom 305 -26 5 0 0 0 - - - 0;
#X floatatom 300 39 5 0 0 0 - - - 0;
#X obj 253 78 sel 0;
#X obj 342 76 sel 1;
#X obj 252 111 random 5;
#X floatatom 252 147 5 0 0 0 - - - 0;
#X obj 341 108 random 3;
#X floatatom 343 148 5 0 0 0 - - - 0;
#X obj 432 287 sel 0;
#X obj 492 287 sel 1;
#X obj 565 285 sel 2;
#X obj 302 8 < 25;
#X connect 0 0 1 0;
#X connect 1 0 28 0;
#X connect 3 0 10 0;
#X connect 4 0 17 0;
#X connect 5 0 18 0;
#X connect 6 0 11 0;
#X connect 7 0 12 0;
#X connect 8 0 13 0;
#X connect 9 0 14 0;
#X connect 10 0 4 0;
#X connect 11 0 4 0;
#X connect 12 0 4 0;
#X connect 13 0 4 0;
#X connect 14 0 4 0;
#X connect 15 0 4 0;
#X connect 16 0 4 0;
#X connect 17 0 5 0;
#X connect 19 0 4 0;
#X connect 28 0 29 0;
#X connect 29 0 40 0;
#X connect 30 0 31 0;
#X connect 30 0 32 0;
#X connect 31 0 33 0;
#X connect 32 0 35 0;
#X connect 33 0 34 0;
#X connect 34 0 3 0;
#X connect 34 0 6 0;
#X connect 34 0 7 0;
#X connect 34 0 8 0;
#X connect 34 0 9 0;
#X connect 35 0 36 0;
#X connect 36 0 37 0;
#X connect 36 0 38 0;
#X connect 36 0 39 0;
#X connect 37 0 19 0;
#X connect 38 0 15 0;
#X connect 39 0 16 0;
#X connect 40 0 30 0;
