#N canvas 35 402 1920 966 12;
#X text 137 26 BPM;
#X obj 9 334 receive ON;
#X obj 94 333 receive 4th_time;
#X obj 96 368 * 4;
#X floatatom 95 409 5 0 0 0 - - - 0;
#X obj 24 455 metro;
#X obj 88 455 send whole_time;
#X obj 28 496 bng 19 250 50 0 empty empty empty 0 -10 0 12 #fcfcfc #000000 #000000;
#X obj 28 533 send whole_note;
#X obj 236 330 receive ON;
#X obj 321 329 receive 4th_time;
#X floatatom 322 405 5 0 0 0 - - - 0;
#X obj 251 451 metro;
#X obj 255 492 bng 19 250 50 0 empty empty empty 0 -10 0 12 #fcfcfc #000000 #000000;
#X obj 323 364 * 1;
#X obj 255 529 send 4th_note;
#X text 113 302 Clock Multiplication;
#X text 347 26 On/Off;
#X obj 348 57 tgl 19 0 empty empty empty 0 -10 0 12 #fcfcfc #000000 #000000 0 1;
#X obj 348 81 send ON;
#X text 564 6 Clock/Sequencer;
#X obj 570 85 sel 0;
#X obj 574 131 bng 19 250 50 0 empty empty empty 0 -10 0 12 #fcfcfc #000000 #000000;
#X msg 576 162 -1;
#X obj 661 148 bng 19 250 50 0 empty empty empty 0 -10 0 12 #fcfcfc #000000 #000000;
#X obj 661 184 int 1;
#X floatatom 663 216 5 0 0 0 - - - 0;
#X obj 665 244 % 2;
#X obj 665 271 + 1;
#X obj 763 211 + 1;
#X obj 666 308 sel 1;
#X obj 666 339 bng 19 250 50 0 empty empty empty 0 -10 0 12 #fcfcfc #000000 #000000;
#X obj 666 368 tgl 19 0 empty empty empty 0 -10 0 12 #fcfcfc #000000 #000000 0 1;
#X obj 666 395 send Chord;
#X obj 559 275 receive ON;
#X obj 577 306 sel 0;
#X obj 566 46 receive ON;
#X msg 592 340 1;
#X text 500 134 Reset;
#X obj 664 119 receive whole_note;
#X text 188 594 Bass;
#X obj 84 597 r Chord;
#X obj 84 621 tgl 19 0 empty empty empty 0 -10 0 12 #fcfcfc #000000 #000000 0 1;
#X obj 84 669 bng 19 250 50 0 empty empty empty 0 -10 0 12 #fcfcfc #000000 #000000;
#X obj 83 645 sel 0;
#X obj 114 671 bng 19 250 50 0 empty empty empty 0 -10 0 12 #fcfcfc #000000 #000000;
#X msg 66 729 130.81;
#X msg 137 726 87.31;
#X floatatom 76 788 5 0 0 0 - - - 0;
#X obj 62 859 lop~ 100;
#X obj 55 976 send~ Bass;
#X obj 205 667 receive ON;
#X obj 210 700 sel 1;
#X obj 211 732 bng 19 250 50 0 empty empty empty 0 -10 0 12 #fcfcfc #000000 #000000;
#X msg 212 774 1 500;
#X obj 203 859 line;
#X obj 325 669 receive whole_time;
#X obj 325 705 * 2;
#X floatatom 324 734 5 0 0 0 - - - 0;
#X obj 323 761 -100;
#X obj 323 796 delay;
#X msg 282 841 0 100;
#X obj 391 736 receive ON;
#X obj 393 770 sel 0;
#X obj 394 806 delay 5;
#X text 56 691 C;
#X text 647 472 Ambient Pad Melody;
#X obj 537 512 r whole_note;
#X obj 538 551 bng 19 250 50 0 empty empty empty 0 -10 0 12 #fcfcfc #000000 #000000;
#X obj 537 584 Chord_Scales;
#X floatatom 565 626 5 0 0 0 - - - 0;
#X obj 540 707 phasor~;
#X obj 561 770 lop~ 100;
#X obj 566 809 *~;
#X obj 566 910 send~ Ambient_Pad;
#X obj 670 552 bng 19 250 50 0 empty empty empty 0 -10 0 12 #fcfcfc #000000 #000000;
#X obj 684 696 line;
#X obj 785 513 receive whole_time;
#X floatatom 787 550 5 0 0 0 - - - 0;
#X obj 861 555 receive ON;
#X obj 852 589 sel 0;
#X obj 776 579 - 500;
#X obj 732 604 delay;
#X msg 678 641 1 500;
#X text 1281 543 Play Sound;
#X obj 1056 608 receive~ Bass;
#X obj 1165 603 receive~ Ambient_Pad;
#X obj 1324 606 loadbang;
#X obj 1394 605 loadbang;
#X obj 1462 604 loadbang;
#X obj 1195 715 freeverb~;
#X msg 1324 639 1;
#X msg 1393 642 0.5;
#X msg 1458 640 0.95;
#X msg 1324 666 wet \$1;
#X msg 1390 670 dry \$1;
#X msg 1461 675 roomsize \$1;
#X obj 1182 826 dac~;
#X floatatom 606 680 5 0 0 0 - - - 0;
#X obj 604 709 phasor~;
#X obj 603 654 * 1.001;
#X obj 97 51 loadbang;
#X obj 166 51 loadbang;
#X obj 97 195 /;
#X floatatom 97 231 5 0 0 0 - - - 0;
#X obj 166 148 t b f;
#X msg 97 81 60000;
#X msg 166 82 60;
#X floatatom 166 115 5 0 0 0 - - - 0;
#X obj 97 264 send 4th_time;
#X text 150 694 F;
#X obj 63 899 *~ 0.5;
#X obj 69 821 phasor~;
#X obj 1181 769 *~ 0.1;
#X obj 1242 770 *~ 0.1;
#X obj 61 943 *~;
#X obj 176 908 hsl 162 19 0 0.8 0 0 empty empty Volume -2 -10 0 12 #c6ffc7 #000000 #000000 0 1;
#X floatatom 177 943 5 0 0 0 - - - 0;
#X obj 669 833 hsl 162 19 0 0.8 0 0 empty empty Volume -2 -10 0 12 #c6ffc7 #000000 #000000 0 1;
#X floatatom 670 864 5 0 0 0 - - - 0;
#X obj 563 874 *~;
#X obj 565 841 *~ 0.35;
#X obj 1002 349 *~;
#X obj 1104 326 hsl 162 19 0 0.8 0 0 empty empty Volume -2 -10 0 12 #c6ffc7 #000000 #000000 0 1;
#X floatatom 1077 354 5 0 0 0 - - - 0;
#X obj 975 38 r whole_note;
#X obj 996 68 bng 19 250 50 0 empty empty empty 0 -10 0 12 #fcfcfc #000000 #000000;
#X msg 731 656 0 300;
#X msg 982 111 400 4 \, 200 10 4;
#X msg 1123 108 1 4 \, 0 100 4;
#X msg 1234 106 0.4 4 \, 0 300 4;
#X obj 985 148 vline~;
#X obj 1120 144 vline~;
#X obj 1239 143 vline~;
#X obj 982 187 osc~;
#X obj 1240 184 pow~ 2;
#X obj 1027 235 *~;
#X obj 1219 239 *~;
#X obj 1178 205 noise~;
#X obj 825 620 delay 3;
#X obj 1094 187 pow~ 4;
#X text 1079 14 Snare;
#X obj 1001 392 s~ Snare;
#X obj 978 640 r~ Snare;
#X connect 1 0 5 0;
#X connect 2 0 3 0;
#X connect 3 0 4 0;
#X connect 4 0 5 1;
#X connect 4 0 6 0;
#X connect 5 0 7 0;
#X connect 7 0 8 0;
#X connect 9 0 12 0;
#X connect 10 0 14 0;
#X connect 11 0 12 1;
#X connect 12 0 13 0;
#X connect 13 0 15 0;
#X connect 14 0 11 0;
#X connect 18 0 19 0;
#X connect 21 0 22 0;
#X connect 22 0 23 0;
#X connect 23 0 25 0;
#X connect 24 0 25 0;
#X connect 25 0 26 0;
#X connect 25 0 29 0;
#X connect 26 0 27 0;
#X connect 27 0 28 0;
#X connect 28 0 30 0;
#X connect 29 0 25 1;
#X connect 30 0 31 0;
#X connect 31 0 32 0;
#X connect 32 0 33 0;
#X connect 34 0 35 0;
#X connect 35 0 37 0;
#X connect 36 0 21 0;
#X connect 37 0 32 0;
#X connect 39 0 24 0;
#X connect 41 0 42 0;
#X connect 42 0 44 0;
#X connect 43 0 46 0;
#X connect 44 0 43 0;
#X connect 44 1 45 0;
#X connect 45 0 47 0;
#X connect 46 0 48 0;
#X connect 47 0 48 0;
#X connect 48 0 112 0;
#X connect 49 0 111 0;
#X connect 51 0 52 0;
#X connect 52 0 53 0;
#X connect 53 0 54 0;
#X connect 54 0 55 0;
#X connect 55 0 111 1;
#X connect 56 0 57 0;
#X connect 57 0 58 0;
#X connect 58 0 59 0;
#X connect 59 0 60 0;
#X connect 60 0 61 0;
#X connect 61 0 55 0;
#X connect 62 0 63 0;
#X connect 63 0 64 0;
#X connect 64 0 61 0;
#X connect 67 0 68 0;
#X connect 67 0 75 0;
#X connect 68 0 69 0;
#X connect 69 0 70 0;
#X connect 70 0 71 0;
#X connect 70 0 100 0;
#X connect 71 0 72 0;
#X connect 72 0 73 0;
#X connect 73 0 121 0;
#X connect 75 0 83 0;
#X connect 75 0 82 0;
#X connect 76 0 73 1;
#X connect 77 0 78 0;
#X connect 78 0 81 0;
#X connect 79 0 80 0;
#X connect 80 0 139 0;
#X connect 81 0 82 1;
#X connect 82 0 127 0;
#X connect 83 0 76 0;
#X connect 85 0 113 0;
#X connect 85 0 114 0;
#X connect 86 0 90 0;
#X connect 86 0 90 1;
#X connect 87 0 91 0;
#X connect 88 0 92 0;
#X connect 89 0 93 0;
#X connect 90 0 113 0;
#X connect 90 1 114 0;
#X connect 91 0 94 0;
#X connect 92 0 95 0;
#X connect 93 0 96 0;
#X connect 94 0 90 0;
#X connect 95 0 90 0;
#X connect 96 0 90 0;
#X connect 98 0 99 0;
#X connect 99 0 72 0;
#X connect 100 0 98 0;
#X connect 101 0 106 0;
#X connect 102 0 107 0;
#X connect 103 0 104 0;
#X connect 104 0 109 0;
#X connect 105 0 103 0;
#X connect 105 1 103 1;
#X connect 106 0 103 0;
#X connect 107 0 108 0;
#X connect 108 0 105 0;
#X connect 111 0 115 0;
#X connect 112 0 49 0;
#X connect 113 0 97 0;
#X connect 114 0 97 1;
#X connect 115 0 50 0;
#X connect 116 0 115 1;
#X connect 116 0 117 0;
#X connect 118 0 119 0;
#X connect 118 0 120 1;
#X connect 120 0 74 0;
#X connect 121 0 120 0;
#X connect 122 0 142 0;
#X connect 123 0 124 0;
#X connect 123 0 122 1;
#X connect 125 0 126 0;
#X connect 126 0 130 0;
#X connect 126 0 128 0;
#X connect 126 0 129 0;
#X connect 127 0 76 0;
#X connect 128 0 131 0;
#X connect 129 0 132 0;
#X connect 130 0 133 0;
#X connect 131 0 134 0;
#X connect 132 0 140 0;
#X connect 133 0 135 0;
#X connect 134 0 136 0;
#X connect 135 0 137 1;
#X connect 136 0 122 0;
#X connect 137 0 122 0;
#X connect 138 0 137 0;
#X connect 139 0 127 0;
#X connect 140 0 136 1;
#X connect 143 0 113 0;
#X connect 143 0 114 0;
